<?xml version="1.0" standalone="no"?>
<!DOCTYPE svg PUBLIC "-//W3C//DTD SVG 20010904//EN"
 "http://www.w3.org/TR/2001/REC-SVG-20010904/DTD/svg10.dtd">
<svg version="1.0" xmlns="http://www.w3.org/2000/svg"
 width="768.000000pt" height="500.000000pt" viewBox="0 0 768.000000 500.000000"
 preserveAspectRatio="xMidYMid meet">

<g transform="translate(0.000000,500.000000) scale(0.100000,-0.100000)"
fill="#000000" stroke="none">
<path d="M0 2500 l0 -2500 3840 0 3840 0 0 2500 0 2500 -3840 0 -3840 0 0
-2500z m4120 2175 c121 -24 272 -74 264 -87 -4 -7 -2 -8 5 -4 15 10 152 -54
144 -67 -3 -6 -1 -7 6 -3 22 14 257 -146 245 -166 -4 -7 -2 -8 4 -4 15 9 127
-98 203 -195 235 -298 351 -675 319 -1033 -34 -373 -184 -770 -485 -1281 -214
-365 -402 -610 -698 -912 l-139 -142 38 -6 c277 -42 426 -117 385 -192 -12
-23 -102 -66 -186 -88 -284 -75 -590 -68 -866 21 -181 59 -183 130 -4 194 63
22 202 54 293 65 l53 7 -136 139 c-82 84 -133 144 -129 151 4 6 3 8 -4 4 -13
-8 -73 64 -65 77 3 6 1 7 -5 4 -12 -8 -134 141 -126 154 3 5 1 8 -4 7 -15 -5
-94 100 -86 113 4 7 3 9 -3 6 -11 -7 -66 69 -66 90 0 7 -4 10 -8 8 -10 -7 -41
44 -34 56 4 5 1 8 -7 7 -7 -2 -12 5 -11 15 0 10 -2 16 -5 13 -9 -10 -53 63
-46 76 4 7 3 8 -4 4 -14 -8 -36 30 -26 46 4 7 3 8 -4 4 -14 -8 -35 30 -26 47
4 6 4 9 -1 5 -12 -11 -38 29 -29 45 4 6 3 9 -1 4 -11 -10 -58 70 -49 85 4 6 3
8 -3 5 -13 -8 -96 149 -87 164 4 7 3 9 -3 6 -27 -17 -293 595 -280 645 3 10 1
16 -3 13 -8 -5 -36 103 -61 235 -19 97 -16 366 5 475 24 129 74 287 88 279 7
-5 8 -3 3 6 -10 16 45 131 58 123 6 -3 7 -1 3 5 -13 21 108 217 126 205 6 -3
8 -1 4 5 -9 15 92 134 107 126 7 -4 9 -4 5 1 -11 11 12 36 25 28 5 -3 7 -1 4
4 -9 14 80 96 95 87 6 -4 8 -3 4 4 -8 13 33 44 47 35 6 -3 7 -2 4 4 -8 12 50
56 63 48 6 -4 9 -1 8 6 -4 17 280 162 304 156 11 -3 15 -1 11 6 -4 6 2 8 15 5
12 -4 20 -3 17 2 -8 13 145 50 310 74 65 9 343 -3 425 -19z"/>
<path d="M3823 4443 c15 -2 37 -2 50 0 12 2 0 4 -28 4 -27 0 -38 -2 -22 -4z"/>
<path d="M4673 3373 c71 -2 183 -2 250 0 67 1 10 3 -128 3 -137 0 -192 -2
-122 -3z"/>
<path d="M2420 3291 c-16 -16 -30 -27 -32 -26 -2 2 -3 -14 -3 -35 0 -21 1 -37
3 -35 2 1 16 -10 32 -26 39 -39 82 -39 121 0 20 20 29 39 29 61 0 22 -9 41
-29 61 -39 39 -82 39 -121 0z"/>
<path d="M3838 2013 c7 -3 16 -2 19 1 4 3 -2 6 -13 5 -11 0 -14 -3 -6 -6z"/>
</g>
</svg>
