<?xml version="1.0" standalone="no"?>
<!DOCTYPE svg PUBLIC "-//W3C//DTD SVG 20010904//EN"
 "http://www.w3.org/TR/2001/REC-SVG-20010904/DTD/svg10.dtd">
<svg version="1.0" xmlns="http://www.w3.org/2000/svg"
 width="768.000000pt" height="500.000000pt" viewBox="0 0 768.000000 500.000000"
 preserveAspectRatio="xMidYMid meet">

<g transform="translate(0.000000,500.000000) scale(0.100000,-0.100000)"
fill="#000000" stroke="none">
<path d="M0 2500 l0 -2500 3840 0 3840 0 0 2500 0 2500 -3840 0 -3840 0 0
-2500z m4138 2171 c351 -74 661 -269 876 -550 215 -281 327 -661 296 -1005
-34 -373 -184 -770 -485 -1281 -214 -365 -402 -610 -698 -912 l-139 -142 38
-6 c277 -42 426 -117 385 -192 -12 -23 -102 -66 -186 -88 -284 -75 -590 -68
-866 21 -181 59 -183 130 -4 194 63 22 202 54 294 65 l53 7 -119 122 c-365
369 -626 742 -896 1281 -154 308 -236 523 -283 752 -23 108 -27 153 -27 293
-1 346 97 631 309 905 231 299 585 501 974 555 104 14 371 4 478 -19z"/>
</g>
</svg>
