<svg version="1.1" id="Layer_1" xmlns="http://www.w3.org/2000/svg" xmlns:xlink="http://www.w3.org/1999/xlink" x="0px" y="0px"
	 width="100%" viewBox="0 0 1024 1010" enable-background="new 0 0 1024 1010" xml:space="preserve">
<path fill="#FFFFFF" opacity="1.000000" stroke="none" 
	d="
M716.744507,1.269008 
	C818.321533,1.000000 919.643127,1.020501 1020.964539,0.909811 
	C1024.310303,0.906156 1025.099365,1.467780 1025.098267,4.963768 
	C1024.992798,338.924927 1024.990356,672.886108 1025.115723,1006.847229 
	C1025.117188,1010.723389 1023.990723,1011.074341 1020.653687,1011.073547 
	C682.193054,1010.994934 343.732391,1010.993286 5.271770,1011.091248 
	C1.726656,1011.092285 0.898131,1010.439453 0.899322,1006.772644 
	C1.007779,672.978210 1.009160,339.183655 0.891233,5.389174 
	C0.889822,1.393515 2.065378,0.916388 5.609877,0.918923 
	C139.760757,1.014841 273.911743,1.000000 408.531342,1.000000 
	C410.499451,2.847334 409.669525,4.817841 409.254425,6.734487 
	C391.869415,87.006096 374.314606,167.240799 356.865326,247.498383 
	C339.309814,328.244659 321.696930,408.978455 304.170227,489.731049 
	C298.127808,517.570862 292.167938,545.429138 285.950012,573.230957 
	C285.452454,575.455627 283.869171,578.234436 285.487579,579.922241 
	C287.293732,581.805786 289.905396,579.755371 291.975037,578.993469 
	C314.483185,570.707458 337.426392,563.636780 360.075500,554.558716 
	C399.241730,540.790222 437.967834,526.977722 476.799164,513.463745 
	C487.803528,509.634003 498.753845,505.646240 509.767792,501.841156 
	C511.330536,501.301300 512.848999,500.534729 514.933350,500.878052 
	C516.389404,502.865173 515.645447,504.626190 515.139465,506.365204 
	C503.744415,545.529358 492.144196,584.633179 480.655548,623.769775 
	C470.573853,658.113647 460.402405,692.431030 450.326477,726.776550 
	C433.688965,783.488647 416.994293,840.184021 400.298309,896.878906 
	C393.197296,920.991760 385.930054,945.055847 378.996216,969.591492 
	C378.791290,971.060974 378.500946,972.144958 378.254395,973.489563 
	C377.726227,974.228088 378.339020,973.528198 377.897614,974.027771 
	C377.731689,974.215576 377.797424,974.148315 378.285339,973.603882 
	C382.985992,966.175842 387.532013,958.996704 392.236542,951.925171 
	C422.144012,906.970764 451.544159,861.682495 481.318970,816.640503 
	C504.384033,781.748779 527.301147,746.757935 550.227295,711.774475 
	C559.908386,697.002014 569.268127,681.983459 579.391724,667.539734 
	C593.746887,647.058533 607.185486,625.990479 620.956665,605.140869 
	C653.285034,556.195557 685.460388,507.148346 717.683838,458.133240 
	C739.837219,424.435730 762.014343,390.753510 784.102356,357.013245 
	C797.245728,336.936249 810.626587,317.015076 823.595886,296.824158 
	C824.220764,295.851349 824.906860,294.908417 825.520325,293.107880 
	C822.279480,293.561035 819.529053,294.386627 816.800476,295.246674 
	C765.472717,311.425354 714.030029,327.235229 662.644653,343.228760 
	C624.623291,355.062744 586.615723,366.942474 548.540710,378.603516 
	C546.725281,379.159546 544.572449,380.608459 542.972107,378.707458 
	C541.618042,377.098969 542.948242,375.154602 543.669556,373.544403 
	C548.640564,362.447174 553.867493,351.467010 558.945679,340.418091 
	C572.788940,310.298004 586.698242,280.207550 600.663635,250.144104 
	C613.927734,221.590286 627.074951,192.982239 640.353638,164.435013 
	C653.420471,136.343109 666.314026,108.168892 679.288940,80.033531 
	C688.636169,59.764591 697.934692,39.471237 707.498779,19.303190 
	C710.340820,13.309973 712.265625,6.836452 716.744507,1.269008 
z"/>
<path fill="#FDB92A" opacity="1.000000" stroke="none" 
	d="
M515.352905,501.265594 
	C492.001099,509.308258 469.021759,517.521179 446.007629,525.635437 
	C418.000885,535.509888 389.964844,545.301270 361.560730,555.186646 
	C359.252563,552.818115 360.741547,550.404419 361.455719,548.171326 
	C368.454529,526.287354 375.351013,504.371063 382.264496,482.460175 
	C397.944519,432.765137 413.726776,383.102509 429.360901,333.392914 
	C438.052246,305.758331 446.878601,278.166046 455.583954,250.535492 
	C471.493652,200.038559 487.540619,149.585007 503.456604,99.089905 
	C513.316650,67.807869 523.148499,36.515396 533.259705,5.312557 
	C533.716431,3.903131 533.941895,2.359180 535.672241,1.228507 
	C596.020874,1.000000 656.041809,1.000000 716.531372,1.000007 
	C707.423889,21.858976 697.888855,42.736935 688.264526,63.573673 
	C640.471069,167.047424 592.652283,270.509521 544.863159,373.985229 
	C544.194397,375.433136 543.074524,376.759735 543.263000,378.958191 
	C638.041870,349.528595 732.670776,320.145569 827.800476,290.607056 
	C826.994507,293.037506 826.563171,294.602417 825.532715,296.161987 
	C807.135681,324.007538 788.912842,351.968048 770.567871,379.848175 
	C746.644409,416.206268 722.633667,452.506958 698.685669,488.848907 
	C682.660767,513.167175 666.670776,537.508423 650.681335,561.850037 
	C635.410950,585.096863 620.217957,608.394714 604.886902,631.601501 
	C589.106689,655.488098 573.153870,679.260559 557.360596,703.138672 
	C533.351013,739.439209 509.384430,775.768250 485.456604,812.122742 
	C469.625946,836.174866 453.905548,860.299622 438.116669,884.379272 
	C418.474945,914.334961 398.813538,944.277771 378.892883,974.441406 
	C378.375366,974.655518 378.125580,974.654297 377.882568,974.278564 
	C377.656860,973.093323 376.795837,972.270569 378.027954,971.219299 
	C387.620636,947.304321 398.201355,924.120056 408.279541,900.720215 
	C424.091400,864.007751 440.042511,827.355042 455.997131,790.704651 
	C478.932892,738.017639 501.746490,685.277649 524.691223,632.594543 
	C541.516907,593.961487 558.230164,555.278931 575.014587,516.627686 
	C580.188599,504.712982 585.141174,492.700317 590.569824,480.894806 
	C591.727783,478.376587 593.020569,475.858154 593.516418,472.539001 
	C588.323181,473.261841 584.039551,475.457733 579.653259,477.164215 
	C559.938110,484.834106 540.249512,492.572388 520.508972,500.177277 
	C518.957336,500.774994 517.440613,501.504303 515.352905,501.265594 
z"/>
<path fill="#9A0000" opacity="1.000000" stroke="none" 
	d="
M535.531372,1.000000 
	C527.299805,28.743267 518.653137,56.503498 509.879456,84.223503 
	C504.503418,101.209038 498.874939,118.114555 493.461212,135.088348 
	C482.685028,168.875107 471.959991,202.678207 461.251190,236.486404 
	C455.280365,255.336517 449.418335,274.221069 443.447601,293.071198 
	C432.738983,326.879242 421.945343,360.660400 411.266968,394.477966 
	C405.706635,412.087158 400.406158,429.778534 394.830231,447.382660 
	C384.072906,481.345154 373.198883,515.270630 362.393768,549.218079 
	C361.850891,550.923828 361.502350,552.691406 361.121643,554.837524 
	C354.678802,559.216614 347.288788,560.889282 340.207733,563.365540 
	C322.447083,569.576599 304.617523,575.604309 286.990051,582.173523 
	C282.161346,583.973083 282.537415,581.453125 283.113190,578.766724 
	C285.954376,565.510254 289.061707,552.311096 291.988373,539.072632 
	C296.031982,520.781677 299.981140,502.469940 304.001099,484.173767 
	C310.307343,455.471710 316.810669,426.811646 322.911774,398.066162 
	C329.081451,368.997620 335.495911,339.984894 341.839081,310.955353 
	C347.492523,285.082397 353.024200,259.183746 358.805115,233.336243 
	C364.517517,207.794754 369.553192,182.102646 375.038361,156.509323 
	C378.726105,139.302673 382.743561,122.166931 386.496857,104.973999 
	C390.734039,85.564438 394.795013,66.116425 399.018463,46.703819 
	C402.276398,31.729065 405.666870,16.783144 408.999207,1.412201 
	C451.020905,1.000000 493.041779,1.000000 535.531372,1.000000 
z"/>
<path fill="#9A0000" opacity="1.000000" stroke="none" 
	d="
M514.996582,501.532288 
	C541.730896,490.669037 568.466003,480.198975 596.091736,469.380127 
	C594.248352,477.273010 590.746887,483.346344 588.030273,489.694519 
	C576.306824,517.090698 564.490356,544.447266 552.611938,571.776611 
	C543.145264,593.557190 533.461731,615.243591 524.017273,637.033691 
	C513.862732,660.462036 503.943970,683.992676 493.792664,707.422424 
	C485.457764,726.659729 476.866272,745.785706 468.509827,765.013855 
	C459.244720,786.332886 450.150604,807.726257 440.919159,829.060059 
	C433.894897,845.293091 426.735840,861.467773 419.702911,877.697083 
	C411.371307,896.923218 403.456177,916.339233 394.692108,935.365051 
	C389.285889,947.101379 385.160492,959.414124 378.440430,970.823364 
	C376.954010,966.449036 379.624603,962.703674 380.777649,958.740662 
	C388.017487,933.857605 395.626556,909.082214 402.932251,884.217957 
	C412.371429,852.092468 421.612000,819.908630 430.992065,787.765686 
	C439.289886,759.331177 447.645142,730.913330 456.005005,702.496948 
	C465.318604,670.838928 474.667175,639.191101 483.998444,607.538330 
	C492.328308,579.282410 500.662842,551.027893 508.977997,522.767639 
	C511.019165,515.830505 512.992737,508.873444 514.996582,501.532288 
z"/>
<path fill="#FDB92A" opacity="1.000000" stroke="none" 
	d="
M378.453522,974.456421 
	C377.832947,975.608826 378.094696,977.335815 376.380371,977.594421 
	C375.526825,976.203613 376.298706,975.179504 377.587402,974.056519 
	C378.020233,974.021362 378.151093,974.138794 378.453522,974.456421 
z"/>
</svg>